<svg xmlns="http://www.w3.org/2000/svg" xmlns:xlink="http://www.w3.org/1999/xlink" width="281.129" height="250" viewBox="0 0 281.129 250"><defs><style>.a{fill:url(#a);}.b{fill:#8308ff;}.c{fill:url(#b);}.d{fill:#7545f9;opacity:0.204;}.e{fill:#6a7185;}.f{fill:#d8deeb;}.g{fill:#e61728;}.h{fill:#f0f2f5;}.i{fill:#2a91eb;}.j{fill:#ffac8c;}.k{fill:#edd4c2;}.l{fill:#0d101f;}.m{fill:#00a699;}.n{fill:#8f95e6;}.o,.p,.q,.r{fill:#fff;}.p{opacity:0.742;}.q{opacity:0.843;}.r{opacity:0.777;}</style><linearGradient id="a" x1="-1.081" y1="-2.683" x2="1" y2="0.5" gradientUnits="objectBoundingBox"><stop offset="0" stop-color="#ee182b"/><stop offset="1" stop-color="#7545f9"/></linearGradient><linearGradient id="b" x1="0.5" x2="1" y2="0.5" gradientUnits="objectBoundingBox"><stop offset="0" stop-color="#0086e4"/><stop offset="1" stop-color="#7545f9"/></linearGradient></defs><g transform="translate(-135.673 -6493.574)"><g transform="translate(135.673 6493.574)"><rect class="a" width="61.762" height="23.982" rx="11.991" transform="translate(69.307 182.172) rotate(149)"/><path class="b" d="M386.187,187.414a33.74,33.74,0,1,1,33.738-33.744A33.78,33.78,0,0,1,386.187,187.414Zm0-61.319a27.581,27.581,0,1,0,27.581,27.575A27.613,27.613,0,0,0,386.187,126.094Z" transform="translate(-352.448 -96.087)"/><path class="c" d="M346.283,208.036a25.9,25.9,0,1,1-25.906-25.906A25.9,25.9,0,0,1,346.283,208.036Z" transform="translate(-69.851 10.288)"/><path class="d" d="M117.479,0C182.36,0,234.957,52.84,234.957,118.022s-52.6,118.022-117.479,118.022S0,183.2,0,118.022,52.6,0,117.479,0Z" transform="translate(34.212)"/><rect class="e" width="204.095" height="132.76" rx="1.868" transform="translate(77.034 13.614)"/><path class="f" d="M334.054,140.618H136.91a3.474,3.474,0,0,0-3.475,3.475v4.6a3.475,3.475,0,0,1,3.475-3.476H334.054a3.475,3.475,0,0,1,3.475,3.476v-4.6A3.474,3.474,0,0,0,334.054,140.618Z" transform="translate(-56.4 -127.004)"/><rect class="g" width="108.843" height="180.177" rx="1.868" transform="translate(269.17 25.572) rotate(90)"/><path class="h" d="M0,0H160.029V108.843H0Z" transform="translate(99.068 25.572)"/><path class="e" d="M0,0H160.029V12.559H0Z" transform="translate(99.068 122.417)"/><rect class="i" width="39.901" height="31.57" transform="translate(111.789 54.935)"/><rect class="g" width="39.901" height="31.57" transform="translate(159.133 54.935)"/><rect class="b" width="39.901" height="31.57" transform="translate(206.472 54.935)"/><rect class="j" width="36.378" height="5.272" rx="1.417" transform="translate(113.551 93.336)"/><rect class="k" width="27.932" height="5.272" rx="1.417" transform="translate(117.776 102.877)"/><rect class="f" width="27.932" height="5.272" rx="1.417" transform="translate(165.115 102.877)"/><rect class="f" width="27.932" height="5.272" rx="1.417" transform="translate(212.458 102.877)"/><rect class="f" width="36.378" height="5.272" rx="1.417" transform="translate(160.894 93.336)"/><rect class="f" width="36.378" height="5.272" rx="1.417" transform="translate(208.234 93.336)"/><rect class="e" width="160.029" height="15.985" transform="translate(99.068 25.563)"/><rect class="f" width="60.863" height="5.272" rx="1.417" transform="translate(113.551 30.924)"/><rect class="f" width="45.325" height="15.659" transform="translate(156.421 147.057)"/><rect class="e" width="77.218" height="8.755" rx="2.354" transform="translate(140.473 162.766)"/><rect class="e" width="128.647" height="77.172" rx="2.099" transform="translate(82.596 222.426) rotate(-90)"/><rect class="h" width="67.054" height="111.02" rx="2.099" transform="translate(87.655 102.592)"/><rect class="i" width="39.901" height="31.57" transform="translate(101.232 131.247)"/><rect class="f" width="36.378" height="5.272" rx="1.417" transform="translate(102.993 169.607)"/><rect class="f" width="27.932" height="5.272" rx="1.417" transform="translate(107.216 179.149)"/><path class="f" d="M202.294,187.87H143.048a3.9,3.9,0,0,0-3.9,3.9v12.07H206.2v-12.07A3.9,3.9,0,0,0,202.294,187.87Z" transform="translate(-51.489 -85.891)"/><rect class="h" width="60.863" height="5.272" rx="1.417" transform="translate(90.751 107.333)"/><rect class="l" width="88.921" height="52.172" rx="1.831" transform="translate(45.829 250) rotate(-90)"/><rect class="h" width="43.986" height="74.661" rx="1.134" transform="translate(49.924 168.209)"/><rect class="e" width="21.733" height="2.646" rx="0.711" transform="translate(61.05 163.093)"/><rect class="g" width="16.887" height="13.362" transform="translate(53.727 183.181)"/><rect class="f" width="17.688" height="2.564" rx="0.689" transform="translate(74.032 186.248)"/><rect class="f" width="13.582" height="2.564" rx="0.689" transform="translate(74.032 190.887)"/><rect class="m" width="16.887" height="13.362" transform="translate(53.727 201.081)"/><rect class="f" width="17.688" height="2.564" rx="0.689" transform="translate(74.032 204.171)"/><rect class="f" width="13.582" height="2.564" rx="0.689" transform="translate(74.032 208.79)"/><rect class="i" width="16.887" height="13.362" transform="translate(53.727 219.393)"/><rect class="f" width="17.688" height="2.564" rx="0.689" transform="translate(74.032 222.482)"/><rect class="f" width="13.582" height="2.564" rx="0.689" transform="translate(74.032 227.101)"/><path class="f" d="M118.859,225.254v9.27h43.986v-9.27a2.108,2.108,0,0,0-2.109-2.107H120.968A2.108,2.108,0,0,0,118.859,225.254Z" transform="translate(-68.935 -55.26)"/><rect class="h" width="36.378" height="5.272" rx="1.417" transform="translate(53.727 170.885)"/><path class="n" d="M331.3,183.509l-10.177,1.873a.4.4,0,0,0-.329.394v8.641a3.422,3.422,0,0,0-2.62-.314,2.775,2.775,0,1,0,1.421,5.3,3.1,3.1,0,0,0,2.454-2.984h0v-9.16l8.461-1.557v6.661a3.422,3.422,0,0,0-2.62-.314,2.775,2.775,0,1,0,1.421,5.3,3.117,3.117,0,0,0,2.457-2.92h0V183.9A.4.4,0,0,0,331.3,183.509Z" transform="translate(-99.157 -119.342)"/><path class="o" d="M332.126,160.487l-11.09-6.4a.99.99,0,0,0-1.485.857v12.808a.99.99,0,0,0,1.485.857l11.09-6.4A.989.989,0,0,0,332.126,160.487Z" transform="translate(-146.268 -89.684)"/><path class="p" d="M10.771,0,21.542,18.78H0Z" transform="translate(115.686 67.77)"/><path class="q" d="M6.734,0l6.734,11.472H0Z" transform="translate(132.24 75.101)"/><ellipse class="r" cx="3.25" cy="3.25" rx="3.25" ry="3.25" transform="translate(135.748 61.223)"/><path class="p" d="M10.771,0,21.542,18.78H0Z" transform="translate(105.727 143.929)"/><path class="q" d="M6.734,0l6.734,11.472H0Z" transform="translate(122.281 151.25)"/><ellipse class="r" cx="3.25" cy="3.25" rx="3.25" ry="3.25" transform="translate(125.79 137.365)"/><path class="o" d="M324.673,156.612,320.156,154a.4.4,0,0,0-.6.349v5.217a.4.4,0,0,0,.6.349l4.517-2.608A.4.4,0,0,0,324.673,156.612Z" transform="translate(-259.631 32.893)"/><path class="p" d="M4.376,0,8.753,7.631H0Z" transform="translate(55.671 225.124)"/><path class="q" d="M2.736,0,5.472,4.661H0Z" transform="translate(62.397 228.093)"/><ellipse class="r" cx="1.321" cy="1.321" rx="1.321" ry="1.321" transform="translate(63.823 222.482)"/></g></g></svg>